Patient4_TMGait_0pt7_01_right_24_GRF.mot
version=1
nRows=52
nColumns=19
inDegrees=no
endheader
time	F1x	F1y	F1z	M1x	M1y	M1z	F2x	F2y	F2z	M2x	M2y	M2z	EC1x	EC1y	EC1z	EC2x	EC2y	EC2z
27.07	-3.9845	744.7572	67.5623	-256.2583	-70.3804	771.3941	-5.5818	27.4787	3.0869	5.7012	2.0008	35.0246	-0.0592	0.0182	-0.0073	-0.0462	0.0165	0.9585
27.0815	-2.7235	736.3009	70.3466	-252.0074	-71.7646	763.5777	-3.7809	19.8588	1.8829	4.3881	1.5844	25.1714	-0.0592	0.0182	-0.0073	-0.0462	0.0165	0.9585
27.093	-1.2565	726.8528	72.4097	-247.4237	-72.4217	753.708	-2.354	13.5076	0.92835	3.2875	1.2141	16.9439	-0.0592	0.0182	-0.0073	-0.0462	0.0165	0.9585
27.1045	0.32025	717.3201	73.6374	-242.932	-72.3158	742.6769	-1.3336	8.7436	0.23784	2.4631	0.92707	10.75	-0.0592	0.0182	-0.0073	-0.0462	0.0165	0.9585
27.116	1.9569	708.5824	74.0198	-238.9184	-71.4772	731.4659	-0.69119	5.5416	-0.21533	1.9142	0.73447	6.5697	-0.0592	0.0182	-0.0073	-0.0462	0.0165	0.9585
27.1275	3.5943	701.2776	73.717	-235.6437	-70.0824	720.9	-0.3419	3.6375	-0.47822	1.5919	0.62275	4.07	-0.0592	0.0182	-0.0073	-0.0462	0.0165	0.9585
27.139	5.2666	695.7372	72.9027	-233.2338	-68.2803	711.4849	-0.23224	2.6962	-0.60792	1.4328	0.58559	2.8444	-0.0592	0.0182	-0.0073	-0.0462	0.0165	0.9585
27.1505	7.0185	691.9745	71.7714	-231.6778	-66.2303	703.4006	-0.26543	2.3584	-0.65409	1.364	0.60237	2.4329	-0.0592	0.0182	-0.0073	-0.0462	0.0165	0.9585
27.162	8.9401	689.8379	70.4874	-230.8913	-64.0455	696.6031	-0.40594	2.2934	-0.65279	1.3111	0.66214	2.4144	-0.0592	0.0182	-0.0073	-0.0462	0.0165	0.9585
27.1735	11.144	689.1839	69.1239	-230.7859	-61.74	691.0194	-0.59278	2.2009	-0.63558	1.1987	0.7537	2.3826	-0.0592	0.0182	-0.0073	-0.0462	0.0165	0.9585
27.185	13.7226	689.978	67.7722	-231.3116	-59.343	686.6617	-0.80314	1.8198	-0.61592	0.95477	0.85987	2	-0.0592	0.0182	-0.0073	-0.0462	0.0165	0.9585
27.1965	16.7905	692.35	66.4464	-232.4748	-56.8114	683.6685	-0.98219	0.92395	-0.5995	0.51037	0.95453	0.97521	-0.0592	0.0182	-0.0073	-0.0462	0.0165	0.9585
27.208	20.4059	696.4543	65.2421	-234.2898	-54.1938	682.2011	-1.0937	-0.63709	-0.57178	-0.18341	1.0001	-0.87265	-0.0592	0.0182	-0.0073	-0.0462	0.0165	0.9585
27.2195	24.6132	702.4141	64.2137	-236.7651	-51.5134	682.3704	-1.057	-2.9231	-0.52777	-1.1438	0.95814	-3.629	-0.0592	0.0182	-0.0073	-0.0462	0.0165	0.9585
27.231	29.3948	710.1907	63.4878	-239.8575	-48.8817	684.1601	-0.80688	-5.8159	-0.43714	-2.3238	0.76289	-7.1453	-0.0592	0.0182	-0.0073	-0.0462	0.0165	0.9585
27.2425	34.7127	719.5375	63.1263	-243.4607	-46.3625	687.3499	-0.24186	-8.9538	-0.27717	-3.5814	0.34749	-10.9836	-0.0592	0.0182	-0.0073	-0.0462	0.0165	0.9585
27.254	40.4687	729.905	63.1841	-247.3741	-44.03	691.4469	0.72227	-11.6287	-0.0075012	-4.6387	-0.36843	-14.2766	-0.0592	0.0182	-0.0073	-0.0462	0.0165	0.9585
27.2655	46.5709	740.4619	63.6189	-251.3106	-41.8793	695.706	2.1851	-12.6625	0.40822	-5.0318	-1.4592	-15.5963	-0.0592	0.0182	-0.0073	-0.0462	0.0165	0.9585
27.277	52.8862	750.1552	64.29	-254.9118	-39.826	699.1867	4.1661	-10.3118	0.99612	-4.0747	-2.9535	-12.8111	-0.0592	0.0182	-0.0073	-0.0462	0.0165	0.9585
27.2885	59.2783	757.7614	64.995	-257.7634	-37.7453	700.8198	6.6024	-2.2634	1.7623	-0.8529	-4.8132	-3.101	-0.0592	0.0182	-0.0073	-0.0462	0.0165	0.9585
27.3	65.569	761.9312	65.4891	-259.4069	-35.4919	699.4565	9.2355	14.308	2.6587	5.7447	-6.8562	17.0079	-0.0592	0.0182	-0.0073	-0.0462	0.0165	0.9585
27.3115	71.5476	761.1327	65.5508	-259.32	-32.9617	693.8081	11.5514	42.356	3.5628	16.8824	-8.705	51.1435	-0.0592	0.0182	-0.0073	-0.0462	0.0165	0.9585
27.323	76.9708	753.6701	64.9631	-256.9238	-30.064	682.4665	12.6704	84.4137	4.237	33.5453	-9.6987	102.4153	-0.0592	0.0182	-0.0073	-0.0462	0.0165	0.9585
27.3345	81.5622	737.8002	63.5063	-251.6267	-26.7249	663.9829	11.241	141.515	4.3254	56.1272	-8.8568	172.0894	-0.0592	0.0182	-0.0073	-0.0462	0.0165	0.9585
27.346	84.9516	711.9027	60.9926	-242.8816	-22.9351	637.0513	5.4215	212.0206	3.4341	83.9524	-4.9969	258.1869	-0.0592	0.0182	-0.0073	-0.0462	0.0165	0.9585
27.3575	86.6681	674.7067	57.2659	-230.2691	-18.7493	600.6813	-5.7362	290.6311	1.0609	114.8856	2.8253	354.2242	-0.0592	0.0182	-0.0073	-0.0462	0.0165	0.9585
27.369	86.1292	625.6438	52.3256	-213.6099	-14.3972	554.5052	-20.7057	368.9443	-3.666	145.5684	14.9191	449.8148	-0.0592	0.0182	-0.0073	-0.0462	0.0165	0.9585
27.3805	82.8216	565.25	46.3477	-193.0955	-10.2309	499.076	-36.5066	439.7514	-10.9833	173.1371	30.25	535.7991	-0.0592	0.0182	-0.0073	-0.0462	0.0165	0.9585
27.392	76.4566	495.5246	39.7202	-169.391	-6.6879	436.1984	-50.9008	500.6414	-19.9843	196.6365	46.8487	608.8664	-0.0592	0.0182	-0.0073	-0.0462	0.0165	0.9585
27.4035	67.2001	419.7232	32.9546	-143.5839	-4.132	368.6791	-62.5494	553.0966	-29.959	216.6619	63.3152	670.6204	-0.0592	0.0182	-0.0073	-0.0462	0.0165	0.9585
27.415	55.6294	342.0831	26.4796	-117.1022	-2.7038	300.1371	-70.9699	599.8381	-39.6984	234.3441	78.0808	724.3844	-0.0592	0.0182	-0.0073	-0.0462	0.0165	0.9585
27.4265	42.7448	267.1764	20.5764	-91.5111	-2.2667	234.4047	-76.1674	642.6728	-48.5276	250.4531	90.3525	772.4969	-0.0592	0.0182	-0.0073	-0.0462	0.0165	0.9585
27.438	29.8442	199.126	15.3978	-68.2329	-2.4701	174.9203	-78.4894	681.849	-55.8907	265.1448	99.6453	815.4442	-0.0592	0.0182	-0.0073	-0.0462	0.0165	0.9585
27.4495	18.2579	140.7648	11.0696	-48.2544	-2.9352	123.9785	-78.3353	716.5188	-61.7064	278.1119	106.0496	852.4052	-0.0592	0.0182	-0.0073	-0.0462	0.0165	0.9585
27.461	8.8843	93.3603	7.5922	-32.0227	-3.3325	82.5879	-76.1675	745.5175	-66.2289	288.8925	110.0508	882.2399	-0.0592	0.0182	-0.0073	-0.0462	0.0165	0.9585
27.4725	2.0715	56.8431	4.9209	-19.5205	-3.4977	50.631	-72.4164	767.7004	-69.656	297.031	112.0956	903.8267	-0.0592	0.0182	-0.0073	-0.0462	0.0165	0.9585
27.484	-2.2531	30.2966	2.9346	-10.4336	-3.3544	27.34	-67.6392	782.1457	-72.3168	302.1602	112.7724	916.3493	-0.0592	0.0182	-0.0073	-0.0462	0.0165	0.9585
27.4955	-4.4064	12.312	1.5116	-4.279	-2.9173	11.5106	-62.3392	788.4511	-74.1808	304.1431	112.294	919.5308	-0.0592	0.0182	-0.0073	-0.0462	0.0165	0.9585
27.507	-4.9806	1.3251	0.54053	-0.51669	-2.303	1.8128	-56.9395	787.0688	-75.3444	303.1716	110.9375	914.054	-0.0592	0.0182	-0.0073	-0.0462	0.0165	0.9585
27.5185	-4.6231	-4.3513	-0.040963	1.4346	-1.6843	-3.2223	-51.6271	779.2216	-75.6199	299.7573	108.6144	901.3644	-0.0592	0.0182	-0.0073	-0.0462	0.0165	0.9585
27.53	-3.8253	-6.3571	-0.33199	2.1373	-1.1478	-5.0113	-46.5519	766.6786	-75.092	294.6003	105.4829	883.5332	-0.0592	0.0182	-0.0073	-0.0462	0.0165	0.9585
27.5415	-2.9015	-6.0968	-0.42456	2.0697	-0.72857	-4.7975	-41.8027	751.4037	-73.8671	288.4726	101.725	862.7697	-0.0592	0.0182	-0.0073	-0.0462	0.0165	0.9585
27.553	-2.0576	-4.6417	-0.38703	1.5949	-0.44202	-3.5202	-37.5088	735.4237	-72.2589	282.1425	97.753	841.3677	-0.0592	0.0182	-0.0073	-0.0462	0.0165	0.9585
27.5645	-1.3661	-2.7573	-0.28977	0.96844	-0.25971	-1.8596	-33.7304	720.5488	-70.548	276.3016	93.9199	821.3102	-0.0592	0.0182	-0.0073	-0.0462	0.0165	0.9585
27.576	-0.86458	-0.90807	-0.16285	0.34786	-0.17093	-0.21322	-30.5401	708.3426	-68.9574	271.5381	90.5057	804.2933	-0.0592	0.0182	-0.0073	-0.0462	0.0165	0.9585
27.5875	-0.52311	0.64439	-0.043712	-0.1805	-0.13598	1.1699	-27.9132	699.8991	-67.6282	268.2778	87.6553	791.4352	-0.0592	0.0182	-0.0073	-0.0462	0.0165	0.9585
27.599	-0.32186	1.8248	0.065333	-0.58638	-0.14486	2.2307	-25.8306	695.8741	-66.5515	266.7775	85.3508	783.3797	-0.0592	0.0182	-0.0073	-0.0462	0.0165	0.9585
27.6105	-0.19719	2.6265	0.14483	-0.86634	-0.16414	2.9444	-24.1789	696.3649	-65.7649	267.0801	83.5743	780.1216	-0.0592	0.0182	-0.0073	-0.0462	0.0165	0.9585
27.622	-0.13817	3.1208	0.19639	-1.0417	-0.19063	3.3858	-22.863	701.0079	-65.2077	269.0458	82.2046	781.1751	-0.0592	0.0182	-0.0073	-0.0462	0.0165	0.9585
27.6335	-0.09507	3.3833	0.22356	-1.1388	-0.21405	3.6088	-21.7198	709.0391	-64.8675	272.3788	81.1516	785.6252	-0.0592	0.0182	-0.0073	-0.0462	0.0165	0.9585
27.645	-0.091185	3.5008	0.23146	-1.1868	-0.23735	3.7139	-20.6601	719.5169	-64.6662	276.7088	80.2841	792.4092	-0.0592	0.0182	-0.0073	-0.0462	0.0165	0.9585
27.6565	-0.091327	3.5318	0.23725	-1.2081	-0.26511	3.7482	-19.5917	731.4502	-64.5452	281.6432	79.497	800.4328	-0.0592	0.0182	-0.0073	-0.0462	0.0165	0.9585
